<svg xmlns="http://www.w3.org/2000/svg" width="1280" height="620" viewBox="0 0 1280 620" role="img" aria-labelledby="t d">
<title id="t">TiTe2高压CVT与暴露证据链</title><desc id="d">左侧为CVT循环温程，右侧为空气暴露和电子束照射两条不同证据链。</desc>
<defs><linearGradient id="bg" x2="1" y2="1"><stop stop-color="#eef4ff"/><stop offset="1" stop-color="#f4f0ff"/></linearGradient><linearGradient id="hot"><stop stop-color="#5f86ff"/><stop offset="1" stop-color="#8b69f7"/></linearGradient><filter id="s"><feDropShadow dx="0" dy="8" stdDeviation="14" flood-color="#3156b8" flood-opacity=".15"/></filter></defs>
<rect width="1280" height="620" rx="30" fill="url(#bg)"/><text x="64" y="72" font-family="Arial,'Microsoft YaHei',sans-serif" font-size="30" font-weight="700" fill="#15213b">TiTe₂｜把生长、表面与辐照分成三条可核查链</text><text x="64" y="108" font-family="Arial,'Microsoft YaHei',sans-serif" font-size="17" fill="#5c6a89">数字来自 arXiv:2609.11992；示意为本站原创重绘</text>
<g filter="url(#s)"><rect x="55" y="145" width="410" height="405" rx="24" fill="white"/><rect x="500" y="145" width="330" height="405" rx="24" fill="white"/><rect x="865" y="145" width="360" height="405" rx="24" fill="white"/></g>
<text x="85" y="190" font-family="Arial,'Microsoft YaHei',sans-serif" font-size="20" font-weight="700" fill="#345bd7">01 · 高压密封安瓿 CVT</text><text x="530" y="190" font-family="Arial,'Microsoft YaHei',sans-serif" font-size="20" font-weight="700" fill="#345bd7">02 · 空气暴露</text><text x="895" y="190" font-family="Arial,'Microsoft YaHei',sans-serif" font-size="20" font-weight="700" fill="#6f52d9">03 · 电子束路径</text>
<g font-family="Arial,'Microsoft YaHei',sans-serif"><rect x="85" y="225" width="350" height="58" rx="16" fill="#edf3ff"/><text x="105" y="260" font-size="18" fill="#1b2a4b">Ti 0.0528 g + Te 0.2071 g</text><path d="M260 290v32" stroke="#7899f5" stroke-width="4"/><path d="m250 314 10 12 10-12" fill="none" stroke="#7899f5" stroke-width="4"/><rect x="85" y="330" width="350" height="70" rx="16" fill="#edf3ff"/><text x="105" y="360" font-size="18" fill="#1b2a4b">N₂回填 → 5000–500 mTorr</text><text x="105" y="384" font-size="14" fill="#687595">升温时内压高于 1 atm</text><path d="M260 406v32" stroke="#7899f5" stroke-width="4"/><path d="m250 430 10 12 10-12" fill="none" stroke="#7899f5" stroke-width="4"/><rect x="85" y="446" width="350" height="76" rx="16" fill="url(#hot)"/><text x="105" y="478" font-size="18" font-weight="700" fill="white">10 °C/min → 900–1000 °C</text><text x="105" y="504" font-size="16" fill="#eef3ff">5 d，自然冷却；循环 3–5 次</text>
<circle cx="555" cy="245" r="9" fill="#5f86ff"/><path d="M555 254v205" stroke="#a9c2ff" stroke-width="4"/><circle cx="555" cy="340" r="9" fill="#5f86ff"/><circle cx="555" cy="455" r="9" fill="#5f86ff"/><text x="580" y="250" font-size="17" fill="#1b2a4b">真空内剥离：金属 LDOS</text><text x="580" y="315" font-size="14" fill="#687595">暴露 &gt;10 min</text><text x="580" y="345" font-size="17" fill="#1b2a4b">粗糙度增加 / 吸附层</text><text x="580" y="460" font-size="17" fill="#1b2a4b">STS 表面能隙出现</text><rect x="530" y="490" width="270" height="38" rx="12" fill="#fff1d8"/><text x="545" y="515" font-size="14" fill="#8a5b00">≠ 已证明体相半导体化</text>
<path d="M920 248h235" stroke="#ccbfff" stroke-width="8" stroke-linecap="round"/><circle cx="920" cy="248" r="13" fill="#5f86ff"/><circle cx="1037" cy="248" r="13" fill="#8a70ed"/><circle cx="1155" cy="248" r="13" fill="#c05ce0"/><text x="895" y="290" font-size="15" fill="#1b2a4b">六方单晶</text><text x="986" y="290" font-size="15" fill="#1b2a4b">畸变单斜</text><text x="1120" y="290" font-size="15" fill="#1b2a4b">多晶</text><text x="895" y="345" font-size="17" fill="#1b2a4b">190 keV TEM</text><text x="895" y="375" font-size="17" fill="#1b2a4b">约 1–2 min 开始变化</text><text x="895" y="420" font-size="15" fill="#687595">SAED：点阵 → 畸变 → 环/多取向</text><rect x="895" y="490" width="300" height="38" rx="12" fill="#f3eaff"/><text x="910" y="515" font-size="14" fill="#6744ad">非平衡束流诱导，需剂量标定</text></g></svg>
