<svg xmlns="http://www.w3.org/2000/svg" width="960" height="440" viewBox="0 0 960 440" role="img" aria-labelledby="t d"><title id="t">SrCrO3 strain-resistivity comparison</title><desc id="d">Resistivity at 300 K for strained films</desc><rect width="960" height="440" rx="28" fill="#f4f7ff"/><text x="55" y="58" font-family="Arial" font-size="25" font-weight="700" fill="#17213a">SrCrO₃：约1.1–1.3%拉伸应变跨过MIT</text><text x="55" y="90" font-family="Arial" font-size="16" fill="#53617c">300 K电阻率对数坐标 · 按正文数值重绘 · 非论文原图</text><line x1="105" y1="350" x2="890" y2="350" stroke="#7f90b5"/><line x1="105" y1="120" x2="105" y2="350" stroke="#7f90b5"/><g font-family="Arial" font-size="14" fill="#53617c"><text x="55" y="355">10⁻⁴</text><text x="58" y="293">10⁻²</text><text x="71" y="231">1</text><text x="57" y="169">10²</text></g><polyline points="155,337 285,334 455,302 585,290 720,281 850,132" fill="none" stroke="#627fff" stroke-width="5"/><g fill="#627fff"><circle cx="155" cy="337" r="9"/><circle cx="285" cy="334" r="9"/><circle cx="455" cy="302" r="9"/><circle cx="585" cy="290" r="9"/><circle cx="720" cy="281" r="9"/><circle cx="850" cy="132" r="9"/></g><g font-family="Arial" font-size="14" fill="#17213a" text-anchor="middle"><text x="155" y="378">−1.82%</text><text x="285" y="378">−0.83%</text><text x="455" y="378">+1.11%</text><text x="585" y="378">+1.31%</text><text x="720" y="378">+2.25%</text><text x="850" y="378">+3.18%</text></g><rect x="470" y="105" width="130" height="270" fill="#a9c2ff" opacity=".18"/><text x="535" y="112" font-family="Arial" font-size="15" fill="#324eaa" text-anchor="middle">MIT边界窗口</text><text x="55" y="421" font-family="Arial" font-size="15" fill="#53617c">DSO样ρ(300 K)≈404 Ω·cm；其余点以正文列出的300 K值绘制。</text></svg>
