<svg xmlns="http://www.w3.org/2000/svg" viewBox="0 0 1200 560" role="img" aria-labelledby="t d"><title id="t">Nickelate Ni core-level spectroscopy evidence chain</title><desc id="d">Original schematic showing why Ni 1s avoids La 3d overlap and how line broadening distinguishes hybridization from charge-transfer energy changes.</desc><rect width="1200" height="560" rx="38" fill="#071b21"/><text x="60" y="70" fill="#eff7f2" font-family="Arial,sans-serif" font-size="30" font-weight="700">Nickelates · choosing a cleaner core level changes the story</text><g><rect x="60" y="116" width="470" height="330" rx="28" fill="#f2f0e8"/><text x="92" y="160" fill="#b33f35" font-family="Arial,sans-serif" font-size="21" font-weight="700">Ni 2p + La 3d · overlap problem</text><path d="M100 355C150 350 160 210 215 205s75 150 128 145 45-110 104-120" fill="none" stroke="#d9534f" stroke-width="8"/><path d="M100 365C165 360 205 312 250 304s100 25 167-12" fill="none" stroke="#557979" stroke-width="8" opacity=".8"/><text x="92" y="406" fill="#526568" font-family="Arial,sans-serif" font-size="17">La satellites invalidate simple subtraction</text></g><path d="M555 280H640" stroke="#77dec5" stroke-width="5"/><path d="M625 265l18 15-18 15" fill="none" stroke="#77dec5" stroke-width="5"/><g><rect x="668" y="116" width="470" height="330" rx="28" fill="#12323a"/><text x="700" y="160" fill="#77dec5" font-family="Arial,sans-serif" font-size="21" font-weight="700">Ni 1s HAXPES · cleaner comparison</text><path d="M710 355C760 350 775 220 830 210s75 145 130 140 55-55 130-48" fill="none" stroke="#ffb453" stroke-width="8"/><text x="700" y="198" fill="#fff" font-family="Arial,sans-serif" font-size="17">6.5 / 10 keV · 80 K · 270 / 320 meV</text><text x="700" y="398" fill="#d8e5e2" font-family="Arial,sans-serif" font-size="17">La₃Ni₂O₇: broader main line + stronger satellite</text></g><rect x="250" y="475" width="700" height="54" rx="27" fill="#dce9e4"/><text x="308" y="509" fill="#143a3f" font-family="Arial,sans-serif" font-size="19" font-weight="700">DFT+DMFT trend → weaker Ni–O hybridization is the better match</text></svg>
