<svg xmlns="http://www.w3.org/2000/svg" viewBox="0 0 720 350" role="img" aria-label="Fe₃GaTe₂：约 1 GPa 下特征温度变化"><rect width="720" height="350" fill="#f9fbff"/><text x="76" y="25" font-family="sans-serif" font-size="18" font-weight="bold" fill="#14223a">Fe₃GaTe₂：约 1 GPa 下特征温度变化</text><line x1="76" y1="280.0" x2="690" y2="280.0" stroke="#d9e2f0"/><text x="64" y="284.0" text-anchor="end" font-family="sans-serif" font-size="12" fill="#42526e">-50</text><line x1="76" y1="241.9" x2="690" y2="241.9" stroke="#d9e2f0"/><text x="64" y="245.9" text-anchor="end" font-family="sans-serif" font-size="12" fill="#42526e">-34</text><line x1="76" y1="203.8" x2="690" y2="203.8" stroke="#d9e2f0"/><text x="64" y="207.8" text-anchor="end" font-family="sans-serif" font-size="12" fill="#42526e">-18</text><line x1="76" y1="165.8" x2="690" y2="165.8" stroke="#d9e2f0"/><text x="64" y="169.8" text-anchor="end" font-family="sans-serif" font-size="12" fill="#42526e">-2</text><line x1="76" y1="127.7" x2="690" y2="127.7" stroke="#d9e2f0"/><text x="64" y="131.7" text-anchor="end" font-family="sans-serif" font-size="12" fill="#42526e">14</text><line x1="76" y1="89.6" x2="690" y2="89.6" stroke="#d9e2f0"/><text x="64" y="93.6" text-anchor="end" font-family="sans-serif" font-size="12" fill="#42526e">30</text><line x1="76" y1="51.5" x2="690" y2="51.5" stroke="#d9e2f0"/><text x="64" y="55.5" text-anchor="end" font-family="sans-serif" font-size="12" fill="#42526e">46</text><text x="16" y="34" font-family="sans-serif" font-size="12" fill="#42526e">ΔT / K</text><line x1="178.3" y1="161.0" x2="178.3" y2="256.2" stroke="#d75b4a" stroke-width="12" stroke-linecap="round"/><circle cx="178.3" cy="256.2" r="6" fill="#d75b4a"/><text x="178.3" y="244.2" text-anchor="middle" font-family="sans-serif" font-size="14" font-weight="bold" fill="#d75b4a">-40</text><text x="178.3" y="320" text-anchor="middle" font-family="sans-serif" font-size="12" fill="#25344f">Tinf1</text><line x1="383.0" y1="161.0" x2="383.0" y2="101.5" stroke="#2c8b71" stroke-width="12" stroke-linecap="round"/><circle cx="383.0" cy="101.5" r="6" fill="#2c8b71"/><text x="383.0" y="89.5" text-anchor="middle" font-family="sans-serif" font-size="14" font-weight="bold" fill="#2c8b71">25</text><text x="383.0" y="320" text-anchor="middle" font-family="sans-serif" font-size="12" fill="#25344f">Tinf2</text><line x1="587.7" y1="161.0" x2="587.7" y2="149.1" stroke="#446bb2" stroke-width="12" stroke-linecap="round"/><circle cx="587.7" cy="149.1" r="6" fill="#446bb2"/><text x="587.7" y="137.1" text-anchor="middle" font-family="sans-serif" font-size="14" font-weight="bold" fill="#446bb2">5</text><text x="587.7" y="320" text-anchor="middle" font-family="sans-serif" font-size="12" fill="#25344f">Tc</text></svg>
