<svg xmlns="http://www.w3.org/2000/svg" width="1200" height="630" viewBox="0 0 1200 630" role="img" aria-labelledby="t d"><title id="t">TbCuAs2生长与磁序证据链</title><desc id="d">从Flux温程到低马赛克单晶，再到XRMS和中子共同确定非公度磁序的原创示意。</desc><defs><linearGradient id="g" x2="1" y2="1"><stop stop-color="#eef3ff"/><stop offset="1" stop-color="#f4efff"/></linearGradient></defs><rect width="1200" height="630" rx="34" fill="url(#g)"/><text x="58" y="65" font-family="Arial,sans-serif" font-size="27" font-weight="700" fill="#243457">TbCuAs₂ · 从Flux窗口到磁结构</text><text x="58" y="100" font-family="Arial,sans-serif" font-size="16" fill="#68799a">依据 arXiv:2609.22589v1 公开 Methods 与结果重绘</text><rect x="58" y="140" width="360" height="420" rx="24" fill="#fff" stroke="#cfdaff"/><text x="86" y="182" font-family="Arial" font-size="19" font-weight="700" fill="#4268de">01 生长</text><polyline points="90,440 170,260 330,440" fill="none" stroke="#5f86ff" stroke-width="7" stroke-linejoin="round"/><line x1="90" y1="470" x2="360" y2="470" stroke="#a7b6d4"/><text x="88" y="500" font-family="Arial" font-size="16" fill="#526481">0 h</text><text x="303" y="500" font-family="Arial" font-size="16" fill="#526481">120 h</text><text x="142" y="242" font-family="Arial" font-size="19" font-weight="700" fill="#315bd4">1050 °C</text><text x="284" y="430" font-family="Arial" font-size="19" font-weight="700" fill="#315bd4">800 °C</text><text x="86" y="530" font-family="Arial" font-size="15" fill="#68799a">Tb₀.₀₄(Cu₀.₅As₀.₅)₀.₉₆ · 离心</text><rect x="445" y="140" width="300" height="420" rx="24" fill="#fff" stroke="#cfdaff"/><text x="473" y="182" font-family="Arial" font-size="19" font-weight="700" fill="#765bdc">02 质量</text><circle cx="595" cy="320" r="88" fill="#edf1ff" stroke="#876ff0" stroke-width="4"/><line x1="520" y1="320" x2="670" y2="320" stroke="#876ff0" stroke-width="5"/><line x1="595" y1="245" x2="595" y2="395" stroke="#876ff0" stroke-width="5"/><text x="485" y="450" font-family="Arial" font-size="21" font-weight="700" fill="#35486b">(004) FWHM &lt; 0.02°</text><text x="485" y="485" font-family="Arial" font-size="15" fill="#68799a">低马赛克度使表示分析可信</text><rect x="772" y="140" width="370" height="420" rx="24" fill="#fff" stroke="#cfdaff"/><text x="800" y="182" font-family="Arial" font-size="19" font-weight="700" fill="#4b72df">03 磁结构</text><line x1="830" y1="260" x2="1085" y2="260" stroke="#cbd5eb" stroke-width="3"/><g fill="#5f86ff"><circle cx="850" cy="260" r="20"/><circle cx="915" cy="260" r="20"/></g><g fill="#a782ee"><circle cx="980" cy="260" r="20"/><circle cx="1045" cy="260" r="20"/></g><g stroke="#fff" stroke-width="4"><path d="M850 276v-32m-10 10l10-10 10 10"/><path d="M915 276v-32m-10 10l10-10 10 10"/><path d="M980 244v32m-10-10 10 10 10-10"/><path d="M1045 244v32m-10-10 10 10 10-10"/></g><text x="832" y="320" font-family="Arial" font-size="24" font-weight="700" fill="#324663">+ + − − 沿 c</text><text x="832" y="370" font-family="Arial" font-size="20" fill="#4c6080">q ≈ (0.3, 0, 0.5)</text><text x="832" y="410" font-family="Arial" font-size="20" fill="#4c6080">Tₙ ≈ 10 K · m ∥ b</text><text x="832" y="465" font-family="Arial" font-size="15" fill="#68799a">XRMS方向选择 + 中子强度</text><text x="832" y="495" font-family="Arial" font-size="15" fill="#68799a">共同锁定 Γ₄ 表示</text></svg>
