<svg xmlns="http://www.w3.org/2000/svg" viewBox="0 0 980 480" role="img" aria-labelledby="t d">
  <title id="t">梯形磁条中的meron-antimeron脉冲注入</title><desc id="d">根据公开Methods和正文数值重绘，并非论文原图。</desc>
  <defs><linearGradient id="g" x1="0" x2="1"><stop stop-color="#5f86ff"/><stop offset="1" stop-color="#8b63e6"/></linearGradient><filter id="s"><feDropShadow dx="0" dy="8" stdDeviation="10" flood-opacity=".12"/></filter></defs>
  <rect width="980" height="480" rx="28" fill="#f7f9ff"/>
  <text x="54" y="56" font-family="Arial,sans-serif" font-size="24" font-weight="700" fill="#17223d">电流脉冲把拓扑纹理注入畴壁</text>
  <text x="54" y="84" font-family="Arial,sans-serif" font-size="14" fill="#64708a">根据公开 Methods / 正文数值重绘，并非论文原图</text>
  <g filter="url(#s)"><path d="M92 190 L650 130 L650 350 L92 290 Z" fill="url(#g)" opacity=".92"/><rect x="62" y="174" width="54" height="132" rx="12" fill="#f0b54a"/><rect x="638" y="114" width="54" height="252" rx="12" fill="#f0b54a"/></g>
  <path d="M350 164 Q410 240 350 316" fill="none" stroke="white" stroke-width="9" stroke-dasharray="12 10"/>
  <circle cx="350" cy="205" r="26" fill="#ff6f7d" stroke="white" stroke-width="5"/><circle cx="350" cy="275" r="26" fill="#4fc5d0" stroke="white" stroke-width="5"/>
  <path d="M180 240 H300" stroke="white" stroke-width="8" marker-end="url(#a)"/><defs><marker id="a" markerWidth="10" markerHeight="10" refX="8" refY="3" orient="auto"><path d="M0,0 L0,6 L9,3 z" fill="white"/></marker></defs>
  <text x="125" y="380" font-family="Arial,sans-serif" font-size="17" font-weight="700" fill="#17223d">Ta 3 nm / Py 40 nm / TaOₓ 3 nm</text>
  <g font-family="Arial,sans-serif"><rect x="724" y="125" width="205" height="74" rx="16" fill="white" stroke="#dce4ff"/><text x="746" y="153" font-size="13" fill="#64708a">写入脉冲</text><text x="746" y="180" font-size="20" font-weight="700" fill="#2c4fbd">20 ns</text><rect x="724" y="215" width="205" height="74" rx="16" fill="white" stroke="#dce4ff"/><text x="746" y="243" font-size="13" fill="#64708a">平均电流密度</text><text x="746" y="270" font-size="20" font-weight="700" fill="#2c4fbd">4.26×10¹¹ A/m²</text><rect x="724" y="305" width="205" height="92" rx="16" fill="white" stroke="#dce4ff"/><text x="746" y="333" font-size="13" fill="#64708a">场驱动湮灭</text><text x="746" y="361" font-size="19" font-weight="700" fill="#17223d">+12 / −9 Oe</text><text x="746" y="383" font-size="12" fill="#64708a">极性依赖支持拓扑配对</text></g>
</svg>
