<svg xmlns="http://www.w3.org/2000/svg" viewBox="0 0 1200 620"><defs><linearGradient id="g" x1="0" x2="1"><stop stop-color="#5f86ff"/><stop offset="1" stop-color="#8d67e8"/></linearGradient><filter id="s"><feDropShadow dx="0" dy="12" stdDeviation="16" flood-opacity=".12"/></filter></defs><rect width="1200" height="620" rx="36" fill="#f6f8ff"/><style>.t{font:700 34px Arial;fill:#15213d}.s{font:500 22px Arial;fill:#4e5f84}.n{font:700 28px Arial;fill:#fff}.b{fill:#fff;stroke:#cbd8ff;stroke-width:2;filter:url(#s)}.a{stroke:#6f83e8;stroke-width:8;fill:none;marker-end:url(#m)}.x{font:700 20px Arial;fill:#5f6f99}</style><marker id="m" markerWidth="10" markerHeight="10" refX="8" refY="3" orient="auto"><path d="M0,0 L0,6 L9,3 z" fill="#6f83e8"/></marker><text x="58" y="70" class="t">门控二维超导：输运与局域相刚度在同一载流子轴比较</text><rect x="70" y="145" width="300" height="300" rx="28" class="b"/><text x="110" y="200" class="s">高载流子密度</text><text x="110" y="260" class="t">均匀 ρs</text><text x="110" y="320" class="s">Tc与相刚度较高</text><text x="110" y="372" class="s">热涨落仍可描述部分趋势</text><path d="M390 295H500" class="a"/><rect x="515" y="145" width="300" height="300" rx="28" class="b"/><text x="555" y="200" class="s">降低载流子密度</text><text x="555" y="260" class="t">ρs斑驳化</text><text x="555" y="320" class="s">Tc,φ ∝ ρs0^0.29</text><text x="555" y="372" class="s">偏离简单BKT判据</text><path d="M830 295H925" class="a"/><rect x="930" y="145" width="220" height="300" rx="28" fill="url(#g)"/><text x="960" y="215" class="n">异常金属</text><text x="960" y="275" class="n">有限电阻</text><text x="960" y="335" class="n">大尺度不均匀</text><text x="960" y="395" class="n">相滑移候选</text><text x="58" y="584" class="x">根据论文公开信息重绘，并非论文原图 · 未报告参数未补写</text></svg>